HIERARCHY
ROOT Root
{
	OFFSET 0.00000 0.00000 0.00000
	CHANNELS 6 Xposition Yposition Zposition Zrotation Xrotation Yrotation
	JOINT Hip
	{
		OFFSET 0 0 0	
		CHANNELS 3 Zrotation Xrotation Yrotation
		JOINT Tummy
		{
			OFFSET 0 0.04 0	
			CHANNELS 3 Zrotation Xrotation Yrotation
			JOINT ChestBottom
			{
				OFFSET 0 0.194 0	
				CHANNELS 3 Zrotation Xrotation Yrotation
				JOINT ChestTop
				{
					OFFSET 0 0.166 0	
					CHANNELS 3 Zrotation Xrotation Yrotation
					JOINT LeftCollar
					{
						OFFSET 0 0.1 0	
						CHANNELS 3 Zrotation Xrotation Yrotation
						JOINT LeftUpperArm
						{
							OFFSET 0.156 -0.02 0	
							CHANNELS 3 Zrotation Xrotation Yrotation
							JOINT LeftForeArm
							{
								OFFSET 0.026 -0.255 0	
								CHANNELS 3 Zrotation Xrotation Yrotation
								JOINT LeftHand
								{
									OFFSET 0.0065 -0.311 0	
									CHANNELS 3 Zrotation Xrotation Yrotation
									End Site
									{
										OFFSET 0 -0.15 0
									}
								}
							}
						}
					}
					JOINT RightCollar
					{
						OFFSET 0 0.1 0	
						CHANNELS 3 Zrotation Xrotation Yrotation
						JOINT RightUpperArm
						{
							OFFSET -0.156 -0.02 0	
							CHANNELS 3 Zrotation Xrotation Yrotation
							JOINT RightForeArm
							{
								OFFSET -0.026 -0.255 0	
								CHANNELS 3 Zrotation Xrotation Yrotation
								JOINT RightHand
								{
									OFFSET -0.0065 -0.311 0	
									CHANNELS 3 Zrotation Xrotation Yrotation
									End Site
									{
										OFFSET 0 -0.15 0
									}
								}
							}
						}
					}
					JOINT Neck
					{
						OFFSET 0 0.1 0	
						CHANNELS 3 Zrotation Xrotation Yrotation
						JOINT Head
						{
							OFFSET 0 0.127 0	
							CHANNELS 3 Zrotation Xrotation Yrotation
							End Site
							{
								OFFSET 0 0.127 0.0156
							}
						}
					}
				}
			}
		}
	}
	JOINT LeftHip
	{
		OFFSET 0 0 0	
		CHANNELS 3 Zrotation Xrotation Yrotation
		JOINT LeftThigh
		{
			OFFSET 0.088 -0.02 0	
			CHANNELS 3 Zrotation Xrotation Yrotation
			JOINT LeftLowerLeg
			{
				OFFSET 0 -0.422 0	
				CHANNELS 3 Zrotation Xrotation Yrotation
				JOINT LeftFootTop
				{
					OFFSET 0 -0.443 0	
					CHANNELS 3 Zrotation Xrotation Yrotation
					JOINT LeftFootFront
					{
						OFFSET 0 -0.04 0.1047	
						CHANNELS 3 Zrotation Xrotation Yrotation
						End Site
						{
							OFFSET 0 -0.0345 0.0931
						}
					}
				}
			}
		}
	}
	JOINT RightHip
	{
		OFFSET 0 0 0	
		CHANNELS 3 Zrotation Xrotation Yrotation
		JOINT RightThigh
		{
			OFFSET -0.088 -0.02 0	
			CHANNELS 3 Zrotation Xrotation Yrotation
			JOINT RightLowerLeg
			{
				OFFSET 0 -0.422 0	
				CHANNELS 3 Zrotation Xrotation Yrotation
				JOINT RightFootTop
				{
					OFFSET 0 -0.443 0	
					CHANNELS 3 Zrotation Xrotation Yrotation
					JOINT RightFootFront
					{
						OFFSET 0 -0.04 0.1047	
						CHANNELS 3 Zrotation Xrotation Yrotation
						End Site
						{
							OFFSET 0 -0.0345 0.0931
						}
					}
				}
			}
		}
	}
}
MOTION
Frames: 13
Frame Time: 0.025
0 0.96001 0 -0 0 -0 0.71224 -0.20702 -0.018831 -0.039082 -0.27368 0.30495 -0.063081 -0.44712 0.498 -0.02751 -0.19155 0.21349 -0 0 -0 0.14295 0.46351 -0.71429 -0.45233 0.75924 -0.78809 0 0 -1.5529e-08 -0 0 -0 0.28963 0.89538 -2.2427 0.1349 -0.82355 0.68045 -0 0 1.6675e-08 0.060588 0.21188 -1.1204 0.060588 0.21188 -1.1204 0.71224 -0.20702 -0.018831 -0.55915 0.10883 0.25275 -0.20034 -0.14981 -0.65527 -0 0 -0 0 0 -1.7457e-09 0.71224 -0.20702 -0.018831 -0.35683 0.38872 -0.29852 -0.43039 -0.27919 1.2683 -0 0 -0 -5.7614e-11 -0.15451 -4.273e-08 
0 0.96 0 -0 0 -0 0.70628 -0.19166 -0.046671 -0.039419 -0.28684 0.30884 -0.063586 -0.46861 0.50434 -0.027756 -0.20077 0.21621 -0 0 -0 0.15393 0.5177 -0.75936 -0.46539 0.77066 -0.76745 0.0097185 -0.037626 0.038998 -0 0 -0 0.30094 0.93072 -2.2221 0.12251 -0.79283 0.67376 0.0082979 -0.037916 0.00053622 0.062356 0.24628 -1.1243 0.062356 0.24628 -1.1243 0.70628 -0.19166 -0.046671 -0.54736 0.10942 0.26324 -0.20177 -0.15906 -0.63226 -0 0 -0 -0.0043931 -0.0070343 -0.0058795 0.70628 -0.19166 -0.046671 -0.35305 0.38325 -0.2849 -0.43834 -0.29168 1.2563 -0 0 -0 0.010182 -0.15238 0.025983 
0 0.95998 0 -0 0 -0 0.69321 -0.16555 -0.092337 -0.037946 -0.30825 0.31624 -0.0611 -0.50358 0.51642 -0.026741 -0.21575 0.22139 -0 0 -0 0.16693 0.59862 -0.8125 -0.47966 0.77435 -0.76431 0.010323 -0.040077 0.070458 -0 0 -0 0.31271 0.9871 -2.2118 0.10694 -0.74973 0.68179 0.012574 -0.054604 0.0020514 0.062954 0.30069 -1.127 0.062954 0.30069 -1.127 0.69321 -0.16555 -0.092337 -0.52626 0.10937 0.27505 -0.20832 -0.17432 -0.59383 -0 0 -0 -0.0014484 -0.011319 -0.0049668 0.69321 -0.16555 -0.092337 -0.34376 0.37228 -0.26365 -0.44711 -0.31094 1.2396 -0 0 -0 0.012675 -0.14981 0.040778 
0 0.95997 0 -0 0 -0 0.67602 -0.13901 -0.15005 -0.034231 -0.32766 0.32501 -0.05495 -0.53527 0.53076 -0.024157 -0.22934 0.22753 -0 0 -0 0.17461 0.67414 -0.85258 -0.48516 0.76642 -0.77437 0.001609 0.00024857 0.0026576 -0 0 -0 0.31833 1.0384 -2.1964 0.0907 -0.70882 0.69144 0.016178 -0.054345 0.0027828 0.062845 0.35527 -1.1212 0.062845 0.35527 -1.1212 0.67602 -0.13901 -0.15005 -0.50615 0.10989 0.29567 -0.21856 -0.19064 -0.56408 -0 0 -0 0.0073736 -0.011276 0.0069198 0.67602 -0.13901 -0.15005 -0.33174 0.35756 -0.23634 -0.45165 -0.32754 1.2301 -0 0 -0 0.0098069 -0.14531 0.039562 
0 0.95995 0 -0 0 -0 0.6599 -0.12124 -0.2085 -0.029031 -0.33933 0.33274 -0.046399 -0.55432 0.5434 -0.020529 -0.23751 0.23294 -0 0 -0 0.17755 0.73713 -0.89201 -0.48882 0.7545 -0.77553 0.0003762 -0.030642 0.072662 -0 0 -0 0.31677 1.0729 -2.1661 0.071638 -0.67449 0.68606 0.019913 -0.047853 0.007315 0.063471 0.39884 -1.1087 0.063471 0.39884 -1.1087 0.6599 -0.12124 -0.2085 -0.49124 0.10597 0.32226 -0.22949 -0.19337 -0.55086 -0 0 -0 0.012223 -0.011584 0.018352 0.6599 -0.12124 -0.2085 -0.32354 0.34555 -0.20868 -0.45024 -0.33864 1.2259 -0 0 -0 0.0065937 -0.14199 0.034813 
0 0.95994 0 -0 0 -0 0.6461 -0.1137 -0.26155 -0.021942 -0.34331 0.33849 -0.03479 -0.5608 0.55281 -0.015572 -0.2403 0.23696 -0 0 -0 0.17612 0.7892 -0.93702 -0.49552 0.74295 -0.77146 -0.0012723 -0.0015748 -0.0046804 -0 0 -0 0.30689 1.0906 -2.1245 0.050194 -0.63711 0.66209 0.021608 -0.049351 0.015943 0.062139 0.42935 -1.0944 0.062139 0.42935 -1.0944 0.6461 -0.1137 -0.26155 -0.47789 0.097337 0.3462 -0.23769 -0.18045 -0.54324 -0 0 -0 0.0088124 -0.012244 0.021368 0.6461 -0.1137 -0.26155 -0.31935 0.34291 -0.18487 -0.446 -0.3482 1.226 -0 0 -0 0.0054399 -0.13578 0.029061 
0 0.95992 0 -0 0 -0 0.6331 -0.11789 -0.31302 -0.013911 -0.34059 0.34436 -0.021663 -0.55634 0.56242 -0.0099528 -0.23841 0.24106 -0 0 -0 0.16579 0.82714 -0.99097 -0.50009 0.73193 -0.76956 -0.0040246 -0.0029897 -0.0031539 -0 0 -0 0.2895 1.0911 -2.0852 0.029286 -0.58665 0.64634 0.024225 -0.055714 0.0083067 0.059287 0.44934 -1.0837 0.059287 0.44934 -1.0837 0.6331 -0.11789 -0.31302 -0.46366 0.093553 0.36396 -0.24464 -0.1621 -0.5272 -0 0 -0 0.0058544 -0.01082 0.017702 0.6331 -0.11789 -0.31302 -0.31432 0.35253 -0.15905 -0.44346 -0.35618 1.2325 -0 0 -0 0.0053641 -0.13357 0.019145 
0 0.9599 0 -0 0 -0 0.62011 -0.13122 -0.36729 -0.0083619 -0.33432 0.35271 -0.012593 -0.54608 0.57607 -0.0060694 -0.23402 0.2469 -0 0 -0 0.15238 0.8544 -1.0646 -0.5017 0.72295 -0.75952 -0.0024396 -0.0021045 0.005292 -0 0 -0 0.27837 1.0803 -2.0657 0.0045416 -0.52619 0.65595 0.029951 -0.057237 -0.0028627 0.061245 0.46633 -1.0811 0.061245 0.46633 -1.0811 0.62011 -0.13122 -0.36729 -0.45121 0.10279 0.3744 -0.25402 -0.15345 -0.49788 -0 0 -0 0.0099397 -0.0050117 0.014572 0.62011 -0.13122 -0.36729 -0.30656 0.37018 -0.12618 -0.4441 -0.35992 1.2356 -0 0 -0 0.0056159 -0.13525 0.018217 
0 0.95988 0 -0 0 -0 0.60681 -0.14414 -0.42396 -0.0078013 -0.32954 0.36424 -0.011659 -0.53827 0.59491 -0.005681 -0.23067 0.25497 -0 0 -0 0.16412 0.88208 -1.1687 -0.51663 0.71339 -0.71695 0.014511 -0.022153 0.079366 -0 0 -0 0.28293 1.0698 -2.0629 -0.01644 -0.46056 0.66414 0.0275 -0.058329 0.006927 0.070997 0.48832 -1.088 0.070997 0.48832 -1.088 0.60681 -0.14414 -0.42396 -0.44338 0.11923 0.38475 -0.25934 -0.15667 -0.46278 -0 0 -0 0.010696 -0.00081591 0.011248 0.60681 -0.14414 -0.42396 -0.29838 0.39183 -0.086861 -0.44391 -0.36652 1.2311 -0 0 -0 0.0045857 -0.13818 0.021896 
0 0.95987 0 -0 0 -0 0.58951 -0.15674 -0.48406 -0.0086895 -0.32606 0.37971 -0.013075 -0.53259 0.62017 -0.0063095 -0.22824 0.2658 -0 0 -0 0.2046 0.91047 -1.2892 -0.54339 0.70577 -0.65579 0.0065053 -0.021564 0.067029 -0 0 -0 0.296 1.0662 -2.0716 -0.03388 -0.40326 0.66007 0.024646 -0.052963 0.020819 0.080247 0.51566 -1.1021 0.080247 0.51566 -1.1021 0.58951 -0.15674 -0.48406 -0.43382 0.14006 0.40161 -0.25489 -0.16133 -0.42951 -0 0 -0 0.0031438 -0.0041064 0.009988 0.58951 -0.15674 -0.48406 -0.28958 0.41691 -0.041111 -0.43601 -0.37857 1.2292 -0 0 -0 0.00020467 -0.13918 0.01616 
0 0.95985 0 -0 0 -0 0.56998 -0.17086 -0.54315 -0.0089181 -0.32062 0.39489 -0.013423 -0.52371 0.64497 -0.0064747 -0.22443 0.27643 -0 0 -0 0.25213 0.92455 -1.3913 -0.56336 0.70641 -0.61763 -0.0073588 -0.020785 0.071259 -0 0 -0 0.31168 1.0635 -2.0727 -0.0519 -0.3645 0.65889 0.022835 -0.040412 0.01032 0.084325 0.54047 -1.1142 0.084325 0.54047 -1.1142 0.56998 -0.17086 -0.54315 -0.42121 0.16785 0.42244 -0.24653 -0.16315 -0.4093 -0 0 -0 -0.0016279 -0.012347 0.018056 0.56998 -0.17086 -0.54315 -0.28535 0.44015 0.0075032 -0.41867 -0.38838 1.2269 -0 0 -0 -0.0025005 -0.13934 0.012923 
0 0.95984 0 -0 0 -0 0.55531 -0.18379 -0.59003 -0.0095785 -0.31335 0.40499 -0.014499 -0.51184 0.66146 -0.0069375 -0.21934 0.2835 -0 0 -0 0.28709 0.92059 -1.4552 -0.57021 0.71328 -0.62103 -0.011579 -0.01575 0.079712 -0 0 -0 0.32678 1.0582 -2.0597 -0.068701 -0.33709 0.66613 0.018603 -0.033744 -0.0073718 0.084586 0.56026 -1.1184 0.084586 0.56026 -1.1184 0.55531 -0.18379 -0.59003 -0.40736 0.19671 0.43218 -0.24847 -0.16016 -0.40239 -0 0 -0 0.0026148 -0.019255 0.030211 0.55531 -0.18379 -0.59003 -0.2867 0.4589 0.035994 -0.40218 -0.39351 1.2279 -0 0 -0 -0.00081591 -0.13937 0.017475 
0 0.95982 0 -0 0 -0 0.54683 -0.20109 -0.62203 -0.010228 -0.30511 0.40942 -0.015579 -0.49838 0.66869 -0.0073887 -0.21357 0.2866 -0 0 -0 0.29982 0.92266 -1.4912 -0.56992 0.70958 -0.64347 -0.0025891 -0.0092162 0.07542 -0 0 -0 0.33702 1.0556 -2.0579 -0.084243 -0.30939 0.683 0.015862 -0.035561 -0.0016892 0.081002 0.58025 -1.1135 0.081002 0.58025 -1.1135 0.54683 -0.20109 -0.62203 -0.39422 0.22228 0.42849 -0.25894 -0.14705 -0.39753 -0 0 -0 0.0056949 -0.0216 0.03086 0.54683 -0.20109 -0.62203 -0.28648 0.48988 0.029984 -0.39626 -0.40309 1.2399 -0 0 -0 0.0021068 -0.14297 0.026017 
